<svg xmlns="http://www.w3.org/2000/svg" viewBox="0 0 64 64" fill="none" color="#90e0c0">
  <g stroke="currentColor" stroke-width="2.3" stroke-linecap="round" stroke-linejoin="round">
    <circle cx="32" cy="32" r="21" opacity=".9"/>
    <path d="M11 32h42M32 11c7 7.8 10.5 14.8 10.5 21S39 45.2 32 53M32 11c-7 7.8-10.5 14.8-10.5 21S25 45.2 32 53" opacity=".5"/>
    <path d="M17 18c7.8 3.7 22.2 3.7 30 0M17 46c7.8-3.7 22.2-3.7 30 0" opacity=".35"/>
    <circle cx="47.5" cy="22" r="3.1" fill="currentColor" fill-opacity=".18"/>
    <circle cx="47.5" cy="22" r="1.4" fill="currentColor"/>
    <path d="M49.8 19.8 57 13M50.4 24.4l8 3.1"/>
    <circle cx="58" cy="12" r="1.6" fill="currentColor" opacity=".7"/>
    <circle cx="59" cy="28" r="1.6" fill="currentColor" opacity=".7"/>
  </g>
</svg>
